<?xml version="1.0" encoding="UTF-8" standalone="no"?>
<!DOCTYPE svg PUBLIC "-//W3C//DTD SVG 1.1//EN"
 "http://www.w3.org/Graphics/SVG/1.1/DTD/svg11.dtd">
<!-- Generated by graphviz version 14.1.2 (20260124.0452)
 -->
<!-- Title: skills4ifa Pages: 1 -->
<svg width="1445pt" height="749pt"
 viewBox="0.00 0.00 1445.00 749.00" xmlns="http://www.w3.org/2000/svg" xmlns:xlink="http://www.w3.org/1999/xlink">
<g id="graph0" class="graph" transform="scale(1 1) rotate(0) translate(57.6 713.43)">
<title>skills4ifa</title>
<polygon fill="white" stroke="none" points="-57.6,36 -57.6,-713.43 1387.6,-713.43 1387.6,36 -57.6,36"/>
<!-- orchestrating -->
<g id="node1" class="node">
<title>orchestrating</title>
<path fill="#34495e" stroke="black" stroke-width="0" d="M646,-666.69C646,-666.69 454,-666.69 454,-666.69 448,-666.69 442,-660.69 442,-654.69 442,-654.69 442,-635.41 442,-635.41 442,-629.41 448,-623.41 454,-623.41 454,-623.41 646,-623.41 646,-623.41 652,-623.41 658,-629.41 658,-635.41 658,-635.41 658,-654.69 658,-654.69 658,-660.69 652,-666.69 646,-666.69"/>
<text xml:space="preserve" text-anchor="start" x="466.38" y="-646.7" font-family="Helvetica Neue" font-weight="bold" font-size="13.00" fill="white">orchestrating&#45;ifa&#45;workflow</text>
<text xml:space="preserve" text-anchor="start" x="518.12" y="-633.7" font-family="Helvetica Neue" font-size="13.00" fill="white">入口路由器</text>
</g>
<!-- writing -->
<g id="node2" class="node">
<title>writing</title>
<path fill="#27ae60" stroke="black" stroke-width="0" d="M628,-550.18C628,-550.18 472,-550.18 472,-550.18 466,-550.18 460,-544.18 460,-538.18 460,-538.18 460,-522.9 460,-522.9 460,-516.9 466,-510.9 472,-510.9 472,-510.9 628,-510.9 628,-510.9 634,-510.9 640,-516.9 640,-522.9 640,-522.9 640,-538.18 640,-538.18 640,-544.18 634,-550.18 628,-550.18"/>
<text xml:space="preserve" text-anchor="start" x="505.38" y="-532.09" font-family="Helvetica Neue" font-weight="bold" font-size="11.00" fill="white">writing&#45;ifa&#45;specs</text>
<text xml:space="preserve" text-anchor="start" x="521.88" y="-521.09" font-family="Helvetica Neue" font-size="11.00" fill="white">規格書撰寫</text>
</g>
<!-- orchestrating&#45;&gt;writing -->
<g id="edge1" class="edge">
<title>orchestrating&#45;&gt;writing</title>
<path fill="none" stroke="#27ae60" stroke-width="1.5" d="M550,-623.52C550,-623.52 550,-559.34 550,-559.34"/>
<polygon fill="#27ae60" stroke="#27ae60" stroke-width="1.5" points="552.45,-559.34 550,-552.34 547.55,-559.34 552.45,-559.34"/>
</g>
<!-- controllers -->
<g id="node10" class="node">
<title>controllers</title>
<path fill="#2980b9" stroke="black" stroke-width="0" d="M1088,-554.68C1088,-554.68 932,-554.68 932,-554.68 926,-554.68 920,-548.68 920,-542.68 920,-542.68 920,-518.4 920,-518.4 920,-512.4 926,-506.4 932,-506.4 932,-506.4 1088,-506.4 1088,-506.4 1094,-506.4 1100,-512.4 1100,-518.4 1100,-518.4 1100,-542.68 1100,-542.68 1100,-548.68 1094,-554.68 1088,-554.68"/>
<text xml:space="preserve" text-anchor="start" x="941.75" y="-536.59" font-family="Helvetica Neue" font-weight="bold" font-size="11.00" fill="white">developing&#45;ifa&#45;controllers</text>
<text xml:space="preserve" text-anchor="start" x="948.88" y="-525.59" font-family="Helvetica Neue" font-size="11.00" fill="white">後端 Controller 型別指引</text>
<text xml:space="preserve" text-anchor="start" x="980.75" y="-516.49" font-family="Helvetica Neue" font-size="9.00" fill="#d6eaf8">BP1&#45;BP4 後端</text>
</g>
<!-- orchestrating&#45;&gt;controllers -->
<g id="edge8" class="edge">
<title>orchestrating&#45;&gt;controllers</title>
<path fill="none" stroke="#2980b9" stroke-width="1.5" d="M646,-623.74C646,-602.81 646,-574 646,-574 646,-574 1005.12,-574 1005.12,-574 1005.12,-574 1005.12,-563.83 1005.12,-563.83"/>
<polygon fill="#2980b9" stroke="#2980b9" stroke-width="1.5" points="1007.58,-563.83 1005.13,-556.83 1002.68,-563.83 1007.58,-563.83"/>
</g>
<!-- debugging -->
<g id="node12" class="node">
<title>debugging</title>
<path fill="#e74c3c" stroke="black" stroke-width="0" d="M1318,-550.18C1318,-550.18 1162,-550.18 1162,-550.18 1156,-550.18 1150,-544.18 1150,-538.18 1150,-538.18 1150,-522.9 1150,-522.9 1150,-516.9 1156,-510.9 1162,-510.9 1162,-510.9 1318,-510.9 1318,-510.9 1324,-510.9 1330,-516.9 1330,-522.9 1330,-522.9 1330,-538.18 1330,-538.18 1330,-544.18 1324,-550.18 1318,-550.18"/>
<text xml:space="preserve" text-anchor="start" x="1178.5" y="-532.09" font-family="Helvetica Neue" font-weight="bold" font-size="11.00" fill="white">debugging&#45;ifa&#45;frontend</text>
<text xml:space="preserve" text-anchor="start" x="1206.62" y="-521.09" font-family="Helvetica Neue" font-size="11.00" fill="white">Runtime 除錯</text>
</g>
<!-- orchestrating&#45;&gt;debugging -->
<g id="edge7" class="edge">
<title>orchestrating&#45;&gt;debugging</title>
<path fill="none" stroke="#e74c3c" stroke-width="1.5" d="M652,-623.58C652,-609.24 652,-593 652,-593 652,-593 1240,-593 1240,-593 1240,-593 1240,-559.23 1240,-559.23"/>
<polygon fill="#e74c3c" stroke="#e74c3c" stroke-width="1.5" points="1242.45,-559.23 1240,-552.23 1237.55,-559.23 1242.45,-559.23"/>
</g>
<!-- converting -->
<g id="node3" class="node">
<title>converting</title>
<path fill="#2ecc71" stroke="black" stroke-width="0" d="M858,-550.18C858,-550.18 702,-550.18 702,-550.18 696,-550.18 690,-544.18 690,-538.18 690,-538.18 690,-522.9 690,-522.9 690,-516.9 696,-510.9 702,-510.9 702,-510.9 858,-510.9 858,-510.9 864,-510.9 870,-516.9 870,-522.9 870,-522.9 870,-538.18 870,-538.18 870,-544.18 864,-550.18 858,-550.18"/>
<text xml:space="preserve" text-anchor="start" x="714.75" y="-532.09" font-family="Helvetica Neue" font-weight="bold" font-size="11.00" fill="white">converting&#45;spec&#45;formats</text>
<text xml:space="preserve" text-anchor="start" x="737.62" y="-521.09" font-family="Helvetica Neue" font-size="11.00" fill="white">MD ↔ Word 轉換</text>
</g>
<!-- writing&#45;&gt;converting -->
<g id="edge11" class="edge">
<title>writing&#45;&gt;converting</title>
<path fill="none" stroke="#2ecc71" stroke-width="1.5" stroke-dasharray="5,2" d="M649.18,-531C649.18,-531 680.88,-531 680.88,-531"/>
<polygon fill="#2ecc71" stroke="#2ecc71" stroke-width="1.5" points="649.18,-528.55 642.18,-531 649.18,-533.45 649.18,-528.55"/>
<polygon fill="#2ecc71" stroke="#2ecc71" stroke-width="1.5" points="680.88,-533.45 687.88,-531 680.88,-528.55 680.88,-533.45"/>
</g>
<!-- planning -->
<g id="node4" class="node">
<title>planning</title>
<path fill="#27ae60" stroke="black" stroke-width="0" d="M628,-448.4C628,-448.4 472,-448.4 472,-448.4 466,-448.4 460,-442.4 460,-436.4 460,-436.4 460,-421.12 460,-421.12 460,-415.12 466,-409.12 472,-409.12 472,-409.12 628,-409.12 628,-409.12 634,-409.12 640,-415.12 640,-421.12 640,-421.12 640,-436.4 640,-436.4 640,-442.4 634,-448.4 628,-448.4"/>
<text xml:space="preserve" text-anchor="start" x="482.5" y="-430.31" font-family="Helvetica Neue" font-weight="bold" font-size="11.00" fill="white">planning&#45;ifa&#45;development</text>
<text xml:space="preserve" text-anchor="start" x="509.88" y="-419.31" font-family="Helvetica Neue" font-size="11.00" fill="white">風險分析 + 決策</text>
</g>
<!-- writing&#45;&gt;planning -->
<g id="edge2" class="edge">
<title>writing&#45;&gt;planning</title>
<path fill="none" stroke="#27ae60" stroke-width="1.5" d="M550,-510.92C550,-510.92 550,-457.59 550,-457.59"/>
<polygon fill="#27ae60" stroke="#27ae60" stroke-width="1.5" points="552.45,-457.59 550,-450.59 547.55,-457.59 552.45,-457.59"/>
</g>
<!-- converting&#45;&gt;planning -->
<!-- executing -->
<g id="node5" class="node">
<title>executing</title>
<path fill="#1e8449" stroke="black" stroke-width="0" d="M646,-351.12C646,-351.12 454,-351.12 454,-351.12 448,-351.12 442,-345.12 442,-339.12 442,-339.12 442,-321.84 442,-321.84 442,-315.84 448,-309.84 454,-309.84 454,-309.84 646,-309.84 646,-309.84 652,-309.84 658,-315.84 658,-321.84 658,-321.84 658,-339.12 658,-339.12 658,-345.12 652,-351.12 646,-351.12"/>
<text xml:space="preserve" text-anchor="start" x="494.88" y="-332.08" font-family="Helvetica Neue" font-weight="bold" font-size="12.00" fill="white">executing&#45;ifa&#45;plans</text>
<text xml:space="preserve" text-anchor="start" x="493.75" y="-320.08" font-family="Helvetica Neue" font-size="12.00" fill="white">分 Phase 程式碼生成</text>
</g>
<!-- planning&#45;&gt;executing -->
<g id="edge3" class="edge">
<title>planning&#45;&gt;executing</title>
<path fill="none" stroke="#27ae60" stroke-width="1.5" d="M550,-409.34C550,-409.34 550,-360.14 550,-360.14"/>
<polygon fill="#27ae60" stroke="#27ae60" stroke-width="1.5" points="552.45,-360.14 550,-353.14 547.55,-360.14 552.45,-360.14"/>
</g>
<!-- developing -->
<g id="node6" class="node">
<title>developing</title>
<path fill="#e67e22" stroke="black" stroke-width="0" d="M168,-251.84C168,-251.84 12,-251.84 12,-251.84 6,-251.84 0,-245.84 0,-239.84 0,-239.84 0,-215.56 0,-215.56 0,-209.56 6,-203.56 12,-203.56 12,-203.56 168,-203.56 168,-203.56 174,-203.56 180,-209.56 180,-215.56 180,-215.56 180,-239.84 180,-239.84 180,-245.84 174,-251.84 168,-251.84"/>
<text xml:space="preserve" text-anchor="start" x="35.25" y="-233.75" font-family="Helvetica Neue" font-weight="bold" font-size="11.00" fill="white">developing&#45;ifa&#45;views</text>
<text xml:space="preserve" text-anchor="start" x="61.12" y="-222.75" font-family="Helvetica Neue" font-size="11.00" fill="white">版型 + 慣例</text>
<text xml:space="preserve" text-anchor="start" x="74.25" y="-213.65" font-family="Helvetica Neue" font-size="9.00" fill="#fff5d0">P1 骨架</text>
</g>
<!-- executing&#45;&gt;developing -->
<g id="edge13" class="edge">
<title>executing&#45;&gt;developing</title>
<path fill="none" stroke="#e67e22" stroke-width="1.5" stroke-dasharray="5,2" d="M442.15,-330C306.19,-330 90,-330 90,-330 90,-330 90,-260.96 90,-260.96"/>
<polygon fill="#e67e22" stroke="#e67e22" stroke-width="1.5" points="92.45,-260.96 90,-253.96 87.55,-260.96 92.45,-260.96"/>
</g>
<!-- components -->
<g id="node7" class="node">
<title>components</title>
<path fill="#e67e22" stroke="black" stroke-width="0" d="M398,-251.84C398,-251.84 242,-251.84 242,-251.84 236,-251.84 230,-245.84 230,-239.84 230,-239.84 230,-215.56 230,-215.56 230,-209.56 236,-203.56 242,-203.56 242,-203.56 398,-203.56 398,-203.56 404,-203.56 410,-209.56 410,-215.56 410,-215.56 410,-239.84 410,-239.84 410,-245.84 404,-251.84 398,-251.84"/>
<text xml:space="preserve" text-anchor="start" x="261.88" y="-233.75" font-family="Helvetica Neue" font-weight="bold" font-size="11.00" fill="white">using&#45;ifa&#45;components</text>
<text xml:space="preserve" text-anchor="start" x="286.25" y="-222.75" font-family="Helvetica Neue" font-size="11.00" fill="white">元件 Gotchas</text>
<text xml:space="preserve" text-anchor="start" x="297.12" y="-213.65" font-family="Helvetica Neue" font-size="9.00" fill="#fff5d0">P2/P3 元件</text>
</g>
<!-- executing&#45;&gt;components -->
<g id="edge14" class="edge">
<title>executing&#45;&gt;components</title>
<path fill="none" stroke="#e67e22" stroke-width="1.5" stroke-dasharray="5,2" d="M451,-310.23C451,-280.37 451,-228 451,-228 451,-228 419.18,-228 419.18,-228"/>
<polygon fill="#e67e22" stroke="#e67e22" stroke-width="1.5" points="419.18,-225.55 412.18,-228 419.18,-230.45 419.18,-225.55"/>
</g>
<!-- verifying -->
<g id="node11" class="node">
<title>verifying</title>
<path fill="#e74c3c" stroke="black" stroke-width="0" d="M628,-247.34C628,-247.34 472,-247.34 472,-247.34 466,-247.34 460,-241.34 460,-235.34 460,-235.34 460,-220.06 460,-220.06 460,-214.06 466,-208.06 472,-208.06 472,-208.06 628,-208.06 628,-208.06 634,-208.06 640,-214.06 640,-220.06 640,-220.06 640,-235.34 640,-235.34 640,-241.34 634,-247.34 628,-247.34"/>
<text xml:space="preserve" text-anchor="start" x="499" y="-229.25" font-family="Helvetica Neue" font-weight="bold" font-size="11.00" fill="white">verifying&#45;ifa&#45;output</text>
<text xml:space="preserve" text-anchor="start" x="521.88" y="-218.25" font-family="Helvetica Neue" font-size="11.00" fill="white">交付前驗證</text>
</g>
<!-- executing&#45;&gt;verifying -->
<g id="edge4" class="edge">
<title>executing&#45;&gt;verifying</title>
<path fill="none" stroke="#e74c3c" stroke-width="1.5" d="M550,-310.17C550,-310.17 550,-256.54 550,-256.54"/>
<polygon fill="#e74c3c" stroke="#e74c3c" stroke-width="1.5" points="552.45,-256.54 550,-249.54 547.55,-256.54 552.45,-256.54"/>
</g>
<!-- developing&#45;&gt;components -->
<!-- styling -->
<g id="node8" class="node">
<title>styling</title>
<path fill="#e67e22" stroke="black" stroke-width="0" d="M168,-145.56C168,-145.56 12,-145.56 12,-145.56 6,-145.56 0,-139.56 0,-133.56 0,-133.56 0,-109.28 0,-109.28 0,-103.28 6,-97.28 12,-97.28 12,-97.28 168,-97.28 168,-97.28 174,-97.28 180,-103.28 180,-109.28 180,-109.28 180,-133.56 180,-133.56 180,-139.56 174,-145.56 168,-145.56"/>
<text xml:space="preserve" text-anchor="start" x="46.5" y="-127.47" font-family="Helvetica Neue" font-weight="bold" font-size="11.00" fill="white">styling&#45;ifa&#45;views</text>
<text xml:space="preserve" text-anchor="start" x="67.5" y="-116.47" font-family="Helvetica Neue" font-size="11.00" fill="white">排版佈局</text>
<text xml:space="preserve" text-anchor="start" x="74.25" y="-107.37" font-family="Helvetica Neue" font-size="9.00" fill="#fff5d0">P3 排版</text>
</g>
<!-- developing&#45;&gt;styling -->
<g id="edge15" class="edge">
<title>developing&#45;&gt;styling</title>
<path fill="none" stroke="#e67e22" stroke-width="1.5" stroke-dasharray="5,2" d="M90,-203.58C90,-203.58 90,-154.71 90,-154.71"/>
<polygon fill="#e67e22" stroke="#e67e22" stroke-width="1.5" points="92.45,-154.71 90,-147.71 87.55,-154.71 92.45,-154.71"/>
</g>
<!-- api -->
<g id="node9" class="node">
<title>api</title>
<path fill="#e67e22" stroke="black" stroke-width="0" d="M398,-145.56C398,-145.56 242,-145.56 242,-145.56 236,-145.56 230,-139.56 230,-133.56 230,-133.56 230,-109.28 230,-109.28 230,-103.28 236,-97.28 242,-97.28 242,-97.28 398,-97.28 398,-97.28 404,-97.28 410,-103.28 410,-109.28 410,-109.28 410,-133.56 410,-133.56 410,-139.56 404,-145.56 398,-145.56"/>
<text xml:space="preserve" text-anchor="start" x="263" y="-127.47" font-family="Helvetica Neue" font-weight="bold" font-size="11.00" fill="white">understanding&#45;ifa&#45;api</text>
<text xml:space="preserve" text-anchor="start" x="287" y="-116.47" font-family="Helvetica Neue" font-size="11.00" fill="white">API 呼叫模式</text>
<text xml:space="preserve" text-anchor="start" x="304.25" y="-107.37" font-family="Helvetica Neue" font-size="9.00" fill="#fff5d0">P4 事件</text>
</g>
<!-- components&#45;&gt;api -->
<g id="edge16" class="edge">
<title>components&#45;&gt;api</title>
<path fill="none" stroke="#e67e22" stroke-width="1.5" stroke-dasharray="5,2" d="M320,-203.58C320,-203.58 320,-154.71 320,-154.71"/>
<polygon fill="#e67e22" stroke="#e67e22" stroke-width="1.5" points="322.45,-154.71 320,-147.71 317.55,-154.71 322.45,-154.71"/>
</g>
<!-- styling&#45;&gt;api -->
<!-- controllers&#45;&gt;planning -->
<g id="edge9" class="edge">
<title>controllers&#45;&gt;planning</title>
<path fill="none" stroke="#2980b9" stroke-width="1.5" d="M980,-506.45C980,-474.47 980,-422 980,-422 980,-422 649.15,-422 649.15,-422"/>
<polygon fill="#2980b9" stroke="#2980b9" stroke-width="1.5" points="649.15,-419.55 642.15,-422 649.15,-424.45 649.15,-419.55"/>
</g>
<!-- controllers&#45;&gt;verifying -->
<g id="edge10" class="edge">
<title>controllers&#45;&gt;verifying</title>
<path fill="none" stroke="#2980b9" stroke-width="1.5" stroke-dasharray="5,2" d="M1040,-506.52C1040,-435.93 1040,-234 1040,-234 1040,-234 649.14,-234 649.14,-234"/>
<polygon fill="#2980b9" stroke="#2980b9" stroke-width="1.5" points="649.14,-231.55 642.14,-234 649.14,-236.45 649.14,-231.55"/>
</g>
<!-- triaging -->
<g id="node13" class="node">
<title>triaging</title>
<path fill="#c0392b" stroke="black" stroke-width="0" d="M628,-141.06C628,-141.06 472,-141.06 472,-141.06 466,-141.06 460,-135.06 460,-129.06 460,-129.06 460,-113.78 460,-113.78 460,-107.78 466,-101.78 472,-101.78 472,-101.78 628,-101.78 628,-101.78 634,-101.78 640,-107.78 640,-113.78 640,-113.78 640,-129.06 640,-129.06 640,-135.06 634,-141.06 628,-141.06"/>
<text xml:space="preserve" text-anchor="start" x="490.75" y="-122.97" font-family="Helvetica Neue" font-weight="bold" font-size="11.00" fill="white">triaging&#45;quality&#45;issues</text>
<text xml:space="preserve" text-anchor="start" x="517.38" y="-111.97" font-family="Helvetica Neue" font-size="11.00" fill="white">5 層根因診斷</text>
</g>
<!-- verifying&#45;&gt;triaging -->
<g id="edge5" class="edge">
<title>verifying&#45;&gt;triaging</title>
<path fill="none" stroke="#e74c3c" stroke-width="1.5" d="M550,-208.21C550,-208.21 550,-150.06 550,-150.06"/>
<polygon fill="#e74c3c" stroke="#e74c3c" stroke-width="1.5" points="552.45,-150.06 550,-143.06 547.55,-150.06 552.45,-150.06"/>
</g>
<!-- debugging&#45;&gt;verifying -->
<!-- debugging&#45;&gt;triaging -->
<g id="edge12" class="edge">
<title>debugging&#45;&gt;triaging</title>
<path fill="none" stroke="#e74c3c" stroke-width="1.5" d="M1270,-511.06C1270,-429.67 1270,-121 1270,-121 1270,-121 649,-121 649,-121"/>
<polygon fill="#e74c3c" stroke="#e74c3c" stroke-width="1.5" points="649,-118.55 642,-121 649,-123.45 649,-118.55"/>
</g>
<!-- submitting -->
<g id="node14" class="node">
<title>submitting</title>
<path fill="#e74c3c" stroke="black" stroke-width="0" d="M628,-39.28C628,-39.28 472,-39.28 472,-39.28 466,-39.28 460,-33.28 460,-27.28 460,-27.28 460,-12 460,-12 460,-6 466,0 472,0 472,0 628,0 628,0 634,0 640,-6 640,-12 640,-12 640,-27.28 640,-27.28 640,-33.28 634,-39.28 628,-39.28"/>
<text xml:space="preserve" text-anchor="start" x="483.25" y="-21.19" font-family="Helvetica Neue" font-weight="bold" font-size="11.00" fill="white">submitting&#45;skill&#45;feedback</text>
<text xml:space="preserve" text-anchor="start" x="519.25" y="-10.19" font-family="Helvetica Neue" font-size="11.00" fill="white">GitLab Issue</text>
</g>
<!-- triaging&#45;&gt;submitting -->
<g id="edge6" class="edge">
<title>triaging&#45;&gt;submitting</title>
<path fill="none" stroke="#e74c3c" stroke-width="1.5" d="M550,-101.8C550,-101.8 550,-48.47 550,-48.47"/>
<polygon fill="#e74c3c" stroke="#e74c3c" stroke-width="1.5" points="552.45,-48.47 550,-41.47 547.55,-48.47 552.45,-48.47"/>
</g>
<!-- legend -->
<g id="node15" class="node">
<title>legend</title>
<path fill="white" stroke="none" stroke-width="0" d="M1078.25,-677.43C1078.25,-677.43 719.75,-677.43 719.75,-677.43 713.75,-677.43 707.75,-671.43 707.75,-665.43 707.75,-665.43 707.75,-624.68 707.75,-624.68 707.75,-618.68 713.75,-612.68 719.75,-612.68 719.75,-612.68 1078.25,-612.68 1078.25,-612.68 1084.25,-612.68 1090.25,-618.68 1090.25,-624.68 1090.25,-624.68 1090.25,-665.43 1090.25,-665.43 1090.25,-671.43 1084.25,-677.43 1078.25,-677.43"/>
<polygon fill="#34495e" stroke="none" points="713.75,-647.68 713.75,-671.43 774.25,-671.43 774.25,-647.68 713.75,-647.68"/>
<text xml:space="preserve" text-anchor="start" x="717.75" y="-657.98" font-family="Helvetica Neue" font-weight="bold" font-size="11.00" fill="white"> 入口路由 </text>
<polygon fill="#27ae60" stroke="none" points="780.25,-647.68 780.25,-671.43 840.75,-671.43 840.75,-647.68 780.25,-647.68"/>
<text xml:space="preserve" text-anchor="start" x="784.25" y="-657.98" font-family="Helvetica Neue" font-weight="bold" font-size="11.00" fill="white"> 開發流程 </text>
<polygon fill="#e67e22" stroke="none" points="846.75,-647.68 846.75,-671.43 907.25,-671.43 907.25,-647.68 846.75,-647.68"/>
<text xml:space="preserve" text-anchor="start" x="850.75" y="-657.98" font-family="Helvetica Neue" font-weight="bold" font-size="11.00" fill="white"> 核心知識 </text>
<polygon fill="#2980b9" stroke="none" points="913.25,-647.68 913.25,-671.43 973.75,-671.43 973.75,-647.68 913.25,-647.68"/>
<text xml:space="preserve" text-anchor="start" x="917.25" y="-657.98" font-family="Helvetica Neue" font-weight="bold" font-size="11.00" fill="white"> 後端知識 </text>
<polygon fill="#e74c3c" stroke="none" points="979.75,-647.68 979.75,-671.43 1040.25,-671.43 1040.25,-647.68 979.75,-647.68"/>
<text xml:space="preserve" text-anchor="start" x="983.75" y="-657.98" font-family="Helvetica Neue" font-weight="bold" font-size="11.00" fill="white"> 品質保證 </text>
<polygon fill="#7f8c8d" stroke="none" points="1046.25,-647.68 1046.25,-671.43 1084.25,-671.43 1084.25,-647.68 1046.25,-647.68"/>
<text xml:space="preserve" text-anchor="start" x="1050.25" y="-657.98" font-family="Helvetica Neue" font-weight="bold" font-size="11.00" fill="white"> 回饋 </text>
<text xml:space="preserve" text-anchor="start" x="740.12" y="-628.18" font-family="Helvetica Neue" font-size="10.00">─── &#160;流程銜接</text>
<text xml:space="preserve" text-anchor="start" x="898.12" y="-628.18" font-family="Helvetica Neue" font-size="10.00">&#45; &#45; &#45; &#160;按需載入 / 工具</text>
</g>
</g>
</svg>
